<?xml version="1.0" encoding="utf-8"?>
<!-- Generator: Adobe Illustrator 18.0.0, SVG Export Plug-In . SVG Version: 6.00 Build 0)  -->
<!DOCTYPE svg PUBLIC "-//W3C//DTD SVG 1.1//EN" "http://www.w3.org/Graphics/SVG/1.1/DTD/svg11.dtd">
<svg version="1.1" id="Capa_1" xmlns="http://www.w3.org/2000/svg" xmlns:xlink="http://www.w3.org/1999/xlink" x="0px" y="0px"
	 viewBox="0 0 50 50" enable-background="new 0 0 50 50" xml:space="preserve">
<path fill="#F1F1F1" d="M47.4,21.7H28.3V2.6c0-1.3-1.1-2.4-2.4-2.4h-2c-1.3,0-2.4,1.1-2.4,2.4v19.1H2.4c-1.3,0-2.4,1.1-2.4,2.4v2
	c0,1.3,1.1,2.4,2.4,2.4h19.1v19.1c0,1.3,1.1,2.4,2.4,2.4h2c1.3,0,2.4-1.1,2.4-2.4V28.5h19.1c1.3,0,2.4-1.1,2.4-2.4v-2
	C49.8,22.8,48.8,21.7,47.4,21.7z"/>
</svg>
