<?xml version="1.0" encoding="utf-8"?>
<!-- Generator: Adobe Illustrator 18.0.0, SVG Export Plug-In . SVG Version: 6.00 Build 0)  -->
<!DOCTYPE svg PUBLIC "-//W3C//DTD SVG 1.1//EN" "http://www.w3.org/Graphics/SVG/1.1/DTD/svg11.dtd">
<svg version="1.1" id="Capa_1" xmlns="http://www.w3.org/2000/svg" xmlns:xlink="http://www.w3.org/1999/xlink" x="0px" y="0px"
	 viewBox="0 0 50 50" enable-background="new 0 0 50 50" xml:space="preserve">
<path fill="#898989" d="M43.2,38.6L29.7,25.1l13.5-13.5c0.9-0.9,0.9-2.5,0-3.4l-1.4-1.4c-0.9-0.9-2.5-0.9-3.4,0L24.9,20.3L11.4,6.8
	c-0.9-0.9-2.5-0.9-3.4,0L6.6,8.2c-0.9,0.9-0.9,2.5,0,3.4l13.5,13.5L6.6,38.6c-0.9,0.9-0.9,2.5,0,3.4L8,43.4c0.9,0.9,2.5,0.9,3.4,0
	l13.5-13.5l13.5,13.5c0.9,0.9,2.5,0.9,3.4,0l1.4-1.4C44.1,41.1,44.2,39.6,43.2,38.6z"/>
</svg>
