<?xml version="1.0" encoding="utf-8"?>
<!-- Generator: Adobe Illustrator 18.0.0, SVG Export Plug-In . SVG Version: 6.00 Build 0)  -->
<!DOCTYPE svg PUBLIC "-//W3C//DTD SVG 1.1//EN" "http://www.w3.org/Graphics/SVG/1.1/DTD/svg11.dtd">
<svg version="1.1" id="Capa_1" xmlns="http://www.w3.org/2000/svg" xmlns:xlink="http://www.w3.org/1999/xlink" x="0px" y="0px"
	 viewBox="0 0 50 50" enable-background="new 0 0 50 50" xml:space="preserve">
<g>
	<path fill="#7C7C7C" d="M2.6,42.2c0,0,5.4,0.7,5.7,6.2L0.8,50c-0.5,0.1-0.9-0.4-0.8-0.9L2.6,42.2z"/>
	<path fill="#7C7C7C" d="M9.4,41.8L8.6,41c-0.7-0.7-0.7-1.8,0-2.4l36.6-37c0.7-0.7,1.8-0.7,2.4,0l0.8,0.8c0.7,0.7,0.7,1.8,0,2.4
		l-36.6,37C11.2,42.4,10.1,42.4,9.4,41.8z"/>
	<path fill="#7C7C7C" d="M12.6,44.9l-0.4-0.4c-0.4-0.4-0.4-1,0-1.3L48,7c0.4-0.4,1-0.4,1.3,0l0.4,0.4c0.4,0.4,0.4,1,0,1.3L13.9,44.9
		C13.6,45.3,13,45.3,12.6,44.9z"/>
	<path fill="#7C7C7C" d="M6.3,37.9l-0.4-0.4c-0.4-0.4-0.4-1,0-1.3L41.2,0.4c0.4-0.4,1-0.4,1.3,0l0.4,0.4c0.4,0.4,0.4,1,0,1.3
		L7.6,37.9C7.3,38.2,6.7,38.2,6.3,37.9z"/>
</g>
</svg>
